<?xml version="1.0" encoding="UTF-8" standalone="no"?>
<svg
   xmlns:dc="http://purl.org/dc/elements/1.1/"
   xmlns:cc="http://creativecommons.org/ns#"
   xmlns:rdf="http://www.w3.org/1999/02/22-rdf-syntax-ns#"
   xmlns:svg="http://www.w3.org/2000/svg"
   xmlns="http://www.w3.org/2000/svg"
   xmlns:sodipodi="http://sodipodi.sourceforge.net/DTD/sodipodi-0.dtd"
   xmlns:inkscape="http://www.inkscape.org/namespaces/inkscape"
   sodipodi:docname="logo-new.svg"
   inkscape:version="1.0 (4035a4fb49, 2020-05-01)"
   id="svg6970"
   version="1.1"
   viewBox="0 0 64.663901 16.668751"
   height="63"
   width="244.399">
  <defs
     id="defs6964" />
  <sodipodi:namedview
     inkscape:document-rotation="0"
     inkscape:window-maximized="1"
     inkscape:window-y="-9"
     inkscape:window-x="-9"
     inkscape:window-height="1001"
     inkscape:window-width="1920"
     units="px"
     showgrid="false"
     inkscape:current-layer="layer1"
     inkscape:document-units="mm"
     inkscape:cy="133.35741"
     inkscape:cx="223.16852"
     inkscape:zoom="1.4"
     inkscape:pageshadow="2"
     inkscape:pageopacity="0.0"
     borderopacity="1.0"
     bordercolor="#666666"
     pagecolor="#ffffff"
     id="base" />
  <metadata
     id="metadata6967">
    <rdf:RDF>
      <cc:Work
         rdf:about="">
        <dc:format>image/svg+xml</dc:format>
        <dc:type
           rdf:resource="http://purl.org/dc/dcmitype/StillImage" />
        <dc:title></dc:title>
      </cc:Work>
    </rdf:RDF>
  </metadata>
  <g
     transform="translate(0,-280.33124)"
     id="layer1"
     inkscape:groupmode="layer"
     inkscape:label="Layer 1">
    <g
       style="fill:#0074d9;fill-opacity:1;stroke:#1a75bc;stroke-width:0.105833;stroke-miterlimit:4;stroke-dasharray:none;stroke-dashoffset:0;stroke-opacity:1"
       transform="matrix(1.524791,0,0,1.52475,-214.36448,-164.50154)"
       id="g4919-7-9">
      <path
         sodipodi:nodetypes="ccsssccsssccsscscccscsccccccsccssscccccsssssscscscccssssscssscssssssscsccccssccsscscccscsccccccccscccccccccssscssccscsccssccsccscccsscsccccccccsccccccccccccccscsssssacsca"
         inkscape:connector-curvature="0"
         id="path4933-6-0"
         d="m 144.59096,300.41445 c 0.0918,-0.76398 0.16788,-2.78805 0.16914,-4.49792 0.002,-2.58601 0.0691,-3.10885 0.39918,-3.10885 0.33521,0 0.39687,0.61929 0.39687,3.98614 0,3.83262 -0.19734,5.00969 -0.83991,5.00969 -0.19721,0 -0.23791,-0.45135 -0.12528,-1.38906 z m 3.73159,-2.76388 c -0.63236,-1.42987 -0.68997,-2.19706 -0.165,-2.19706 0.24762,0 1.63194,2.88965 1.63194,3.40653 0,0.1637 -0.1801,0.29764 -0.40021,0.29764 -0.23238,0 -0.67973,-0.63202 -1.06673,-1.50711 z m -7.65506,0.98786 c -0.23874,-0.38629 1.13731,-2.92033 1.58583,-2.92033 0.54528,0 0.49455,0.34521 -0.2735,1.86088 -0.65309,1.28881 -0.99833,1.56752 -1.31233,1.05945 z m 17.0595,3.32977 c 0,-0.20046 0.17539,-0.51004 0.38977,-0.68796 0.30269,-0.25121 0.40614,-1.15916 0.46302,-4.06399 0.065,-3.31797 0.12555,-3.75054 0.53627,-3.82935 0.42442,-0.0814 0.46302,0.2436 0.46302,3.8993 0,3.63537 -0.0468,4.03495 -0.52917,4.51731 -0.60938,0.60938 -1.32291,0.69821 -1.32291,0.16469 z m 9.80803,-0.39479 c -0.15567,-0.29087 -0.29712,-0.74505 -0.31434,-1.00927 -0.0172,-0.26423 -0.10743,-0.12468 -0.20047,0.3101 -0.0967,0.45163 -0.3668,0.82858 -0.63016,0.8793 -0.38537,0.0742 -0.46326,-0.12055 -0.47486,-1.1874 -0.0135,-1.23731 -0.0265,-1.25804 -0.42914,-0.68086 -0.2284,0.32743 -0.56661,0.59532 -0.75157,0.59532 -0.18496,0 -0.40198,0.17118 -0.48227,0.3804 -0.14358,0.37416 -1.71537,0.93815 -2.62262,0.94104 -0.70778,0.002 -0.55076,-0.77202 0.21566,-1.06341 0.37328,-0.14192 1.08765,-0.25803 1.5875,-0.25803 0.60282,0 0.90882,-0.12479 0.90882,-0.37061 0,-0.20383 0.29649,-1.0075 0.65887,-1.78593 0.36238,-0.77844 0.66004,-1.8986 0.66146,-2.48925 0.004,-1.77278 0.34296,-2.00556 2.7861,-1.91487 l 2.11128,0.0784 0.0806,1.25678 c 0.0789,1.23034 0.0644,1.25677 -0.69068,1.25677 -1.35121,0 -3.22642,0.32845 -3.22642,0.56513 0,0.12574 0.94276,0.22862 2.09503,0.22862 2.94849,0 2.93205,-0.0119 2.93205,2.12333 0,2.03645 -0.15752,2.63917 -0.68976,2.63917 -0.24483,0 -0.36857,-0.3109 -0.36857,-0.92605 0,-1.22787 -0.72563,-1.2848 -0.84313,-0.0661 -0.0531,0.55111 -0.22543,0.85989 -0.47979,0.85989 -0.25436,0 -0.42664,-0.30878 -0.47978,-0.85989 -0.0456,-0.47294 -0.20831,-0.8599 -0.36158,-0.8599 -0.15438,0 -0.22241,0.29426 -0.15253,0.65978 0.17133,0.89631 -0.45495,1.4166 -0.83974,0.69762 z m -0.0185,-2.81261 c 0,-0.21828 -0.11204,-0.39687 -0.24897,-0.39687 -0.33363,0 -0.57258,0.41317 -0.3612,0.62455 0.29797,0.29797 0.61017,0.18148 0.61017,-0.22768 z m 1.5875,-0.022 c 0,-0.23041 -0.14139,-0.3718 -0.31419,-0.3142 -0.4906,0.16354 -0.57197,0.73312 -0.10473,0.73312 0.2304,0 0.41892,-0.18852 0.41892,-0.41892 z m 1.5875,0 c 0,-0.23041 -0.14139,-0.3718 -0.31419,-0.3142 -0.4906,0.16354 -0.57197,0.73312 -0.10473,0.73312 0.2304,0 0.41892,-0.18852 0.41892,-0.41892 z m -1.05833,-3.41754 c 0,-0.30467 -0.33808,-0.39687 -1.45521,-0.39687 -1.11713,0 -1.45521,0.0922 -1.45521,0.39687 0,0.30467 0.33808,0.39688 1.45521,0.39688 1.11713,0 1.45521,-0.0922 1.45521,-0.39688 z m 5.73034,6.56819 c -0.0957,-0.0957 -0.17409,-0.99374 -0.17409,-1.99554 v -1.82145 l -0.93825,0.71563 c -0.71085,0.54219 -1.01251,0.64138 -1.24464,0.40925 -0.23213,-0.23214 -0.0368,-0.58109 0.80596,-1.43979 0.61179,-0.62337 1.11234,-1.22581 1.11234,-1.33875 0,-0.11294 -0.38695,-0.16797 -0.85989,-0.12228 -1.25579,0.12132 -1.15057,-0.63887 0.13229,-0.95578 1.073,-0.26506 1.31503,-0.79938 0.46302,-1.02218 -0.29104,-0.0761 -0.52917,-0.26617 -0.52917,-0.42236 0,-0.32758 1.89701,-1.35306 2.503,-1.35306 0.52362,0 0.53196,0.76256 0.0105,0.96265 -0.22311,0.0856 -0.39687,0.47937 -0.39687,0.89934 0,0.56438 0.14049,0.76771 0.57459,0.83158 0.77198,0.1136 0.91152,0.65856 0.22445,0.87662 -0.54181,0.17196 -0.53942,0.1862 0.11773,0.70312 0.3689,0.29017 0.67073,0.69755 0.67073,0.90526 0,0.45923 -0.83155,0.49863 -1.27,0.0602 -0.24694,-0.24695 -0.3175,0.12803 -0.3175,1.68739 0,1.35445 -0.1152,2.1005 -0.35507,2.29958 -0.19529,0.16208 -0.43342,0.21634 -0.52917,0.12059 z m -22.03324,-0.40067 c -0.31987,-0.51756 -0.85382,-4.29824 -0.63964,-4.52901 0.10903,-0.11747 0.84031,-0.177 1.62507,-0.13229 l 1.42684,0.0813 -0.062,1.43783 c -0.0966,2.23949 -0.99633,2.65644 -0.99633,0.4617 0,-0.86347 -0.10605,-1.11834 -0.49674,-1.19385 -0.45718,-0.0884 -0.48149,0.0272 -0.3052,1.45124 0.10535,0.85099 0.22379,1.58106 0.2632,1.62238 0.0394,0.0413 0.64335,-0.053 1.34211,-0.20958 2.28061,-0.5111 2.79299,0.26783 0.60381,0.91795 -1.64452,0.48837 -2.49871,0.51694 -2.76112,0.0924 z m 24.08982,-0.24397 c -0.25327,-0.40981 0.38643,-0.75531 1.40735,-0.76012 0.58616,-0.003 0.85989,-0.13039 0.85989,-0.40093 0,-0.26458 -0.26458,-0.39687 -0.79375,-0.39687 -0.50943,0 -0.79375,-0.13463 -0.79375,-0.37586 0,-0.20671 0.35719,-0.4543 0.79375,-0.55019 0.5459,-0.11989 0.79375,-0.333 0.79375,-0.68248 0,-0.38821 -0.18733,-0.50814 -0.79375,-0.50814 -1.06759,0 -1.04248,-0.67786 0.0331,-0.89297 1.3921,-0.27842 3.06124,-0.18451 3.37181,0.18971 0.38784,0.46731 0.11838,0.70326 -0.80315,0.70326 -0.95377,0 -1.08957,0.97325 -0.15434,1.10608 0.32742,0.0465 0.59531,0.26314 0.59531,0.48142 0,0.21828 -0.26789,0.43492 -0.59531,0.48142 -0.98641,0.1401 -0.68207,0.75999 0.46302,0.9431 0.6848,0.1095 1.05833,0.3082 1.05833,0.56298 0,0.3222 -0.47792,0.39375 -2.63022,0.39375 -1.6444,0 -2.69835,-0.11025 -2.81202,-0.29416 z m -20.04044,-1.99338 c -0.26549,-0.26549 -0.22267,-2.15395 0.0527,-2.32414 0.4166,-0.25747 0.86221,0.58427 0.77564,1.46517 -0.082,0.83403 -0.46062,1.22669 -0.82834,0.85897 z m 4.17653,-0.10535 c -0.0939,-0.15192 0.0142,-0.55837 0.24013,-0.90324 0.39499,-0.60283 0.38056,-0.63757 -0.37407,-0.90064 -0.4317,-0.15049 -0.78491,-0.40787 -0.78491,-0.57195 0,-0.44613 2.10394,-3.96253 2.37088,-3.96253 0.49737,0 0.43769,0.71696 -0.15896,1.90943 -0.34343,0.68639 -0.62442,1.371 -0.62442,1.52136 0,0.45106 0.58827,0.31009 1.23282,-0.29542 0.53661,-0.50413 0.62441,-0.51942 0.7721,-0.13453 0.092,0.23963 -0.0828,0.85713 -0.38997,1.37768 -0.68081,1.15389 -0.68302,1.08045 0.0387,1.28351 0.58297,0.16403 0.58466,0.17564 0.0817,0.56003 -0.58978,0.45075 -2.15065,0.52627 -2.40402,0.1163 z m -6.13817,-3.18612 c -0.6106,-0.56957 -1.21851,-1.03557 -1.35091,-1.03557 -0.1324,0 -0.52396,0.4159 -0.87014,0.92423 -0.64954,0.95377 -1.76677,1.33097 -1.44297,0.48717 0.42279,-1.10178 2.63216,-4.33228 2.89813,-4.23758 0.16317,0.0581 0.26483,0.49156 0.22592,0.96326 -0.0575,0.69699 0.12835,1.05673 0.99219,1.92057 1.01986,1.01985 1.29361,1.62064 0.86045,1.88834 -0.11137,0.0688 -0.70207,-0.34086 -1.31267,-0.91042 z m 23.07149,-0.0434 c -0.0676,-0.1819 -0.15315,-0.92604 -0.19013,-1.65364 l -0.0673,-1.32292 h 1.98438 1.98437 l 0.0788,1.65365 0.0788,1.65364 h -1.87302 c -1.25648,0 -1.91346,-0.10886 -1.9959,-0.33073 z m 2.78533,-1.38906 c 0,-0.59531 -0.10583,-0.66146 -1.05833,-0.66146 -0.58208,0 -1.05833,0.10933 -1.05833,0.24295 0,0.74044 0.38322,1.07997 1.21893,1.07997 0.78119,0 0.89773,-0.0859 0.89773,-0.66146 z m -14.9227,-1.41272 c -0.29922,-0.48415 0.61032,-0.86587 1.87142,-0.78543 0.9228,0.0589 1.27732,0.19164 1.27732,0.47836 0,0.29678 -0.37779,0.41671 -1.49801,0.47553 -0.8239,0.0433 -1.56673,-0.0325 -1.65073,-0.16846 z"
         style="fill:#0074d9;fill-opacity:1;stroke:#1a75bc;stroke-opacity:1" />
    </g>
  </g>
</svg>
