<?xml version="1.0" encoding="UTF-8" standalone="no"?>
<!-- Created with Inkscape (http://www.inkscape.org/) -->

<svg
   xmlns:dc="http://purl.org/dc/elements/1.1/"
   xmlns:cc="http://creativecommons.org/ns#"
   xmlns:rdf="http://www.w3.org/1999/02/22-rdf-syntax-ns#"
   xmlns:svg="http://www.w3.org/2000/svg"
   xmlns="http://www.w3.org/2000/svg"
   xmlns:sodipodi="http://sodipodi.sourceforge.net/DTD/sodipodi-0.dtd"
   xmlns:inkscape="http://www.inkscape.org/namespaces/inkscape"
   width="151"
   height="40"
   viewBox="0 0 39.952082 10.583333"
   version="1.1"
   id="svg858"
   inkscape:version="0.92.3 (2405546, 2018-03-11)"
   sodipodi:docname="logo.svg"
   inkscape:export-filename="E:\develop\logo-syso\logo.png"
   inkscape:export-xdpi="96"
   inkscape:export-ydpi="96">
  <defs
     id="defs852" />
  <sodipodi:namedview
     id="base"
     pagecolor="#ffffff"
     bordercolor="#666666"
     borderopacity="1.0"
     inkscape:pageopacity="0.0"
     inkscape:pageshadow="2"
     inkscape:zoom="2"
     inkscape:cx="32.01652"
     inkscape:cy="-6.7817644"
     inkscape:document-units="mm"
     inkscape:current-layer="layer1"
     showgrid="false"
     units="px"
     inkscape:window-width="1920"
     inkscape:window-height="1001"
     inkscape:window-x="-9"
     inkscape:window-y="-9"
     inkscape:window-maximized="1" />
  <metadata
     id="metadata855">
    <rdf:RDF>
      <cc:Work
         rdf:about="">
        <dc:format>image/svg+xml</dc:format>
        <dc:type
           rdf:resource="http://purl.org/dc/dcmitype/StillImage" />
        <dc:title />
      </cc:Work>
    </rdf:RDF>
  </metadata>
  <g
     inkscape:label="Layer 1"
     inkscape:groupmode="layer"
     id="layer1"
     transform="translate(0,-286.41666)">
    <path
       style="fill:#0074d9;fill-opacity:1;stroke-width:0.17327343"
       d="m 0.45337836,295.1139 c 0.509246,-1.51896 1.04604904,-1.68942 5.32068604,-1.68942 3.8111243,0 3.429364,0.10573 3.7542943,-1.03964 0.0962,-0.3392 0.0156,-0.34655 -3.8080183,-0.34655 h -3.906334 l -0.281837,-0.43013 c -0.218382,-0.33329 -0.247092,-0.57712 -0.127514,-1.08297 l 0.154326,-0.65281 5.10513,-0.0485 c 2.8078173,-0.0267 5.2832176,-0.005 5.5008876,0.0481 0.7423,0.18125 0.80307,0.72637 0.29119,2.61211 -0.25681,0.94609 -0.57447,1.92986 -0.7059,2.18615 -0.51394,1.00213 -0.54318,1.00684 -6.2484336,1.00684 H 0.26458333 Z m 1.52591204,-6.70354 c 0,-0.0974 0.126625,-0.49353 0.281387,-0.88032 0.475369,-1.18806 0.589541,-1.20976 6.364821,-1.20976 h 5.1039506 l -0.18414,0.59999 c -0.10128,0.33 -0.41088,0.81733 -0.688,1.08296 l -0.50386,0.48297 -5.1870776,0.0506 c -3.449448,0.0337 -5.187081,-0.009 -5.187081,-0.12645 z"
       id="path823"
       inkscape:connector-curvature="0"
       sodipodi:nodetypes="csssccccscscsccscscsccss"
       inkscape:export-xdpi="96"
       inkscape:export-ydpi="96" />
    <g
       id="g842"
       transform="matrix(0.17327344,0,0,0.17327344,102.9405,252.15408)"
       style="fill:#0074d9;fill-opacity:1">
      <path
         style="fill:#0074d9;fill-opacity:1"
         d="m -455.31248,256.56579 c 0.48598,-1.2375 4.71403,-12.28478 9.39567,-24.5495 l 8.51207,-22.2995 -5.08381,0.2995 -5.0838,0.2995 -3.61725,10.19729 c -1.98948,5.60852 -3.86965,10.44971 -4.17815,10.75821 -0.30851,0.30851 -2.35662,-4.28028 -4.55136,-10.19729 l -3.99045,-10.75821 -5.10713,-0.30015 -5.10713,-0.30015 6.8955,17.14321 6.8955,17.14321 -2.45638,6.526 c -1.35101,3.58929 -2.45638,6.92242 -2.45638,7.40693 0,0.48452 2.03614,0.88095 4.52475,0.88095 3.76386,0 4.67334,-0.37837 5.40835,-2.25 z m -27.02429,-13.20285 c 5.31824,-2.75017 6.3162,-10.21898 1.90051,-14.22356 -1.10595,-1.00298 -5.00298,-3.39859 -8.66007,-5.32359 -5.90288,-3.10713 -6.68443,-3.86489 -6.96266,-6.75065 -0.26301,-2.72797 0.10924,-3.41133 2.3151,-4.25 1.44568,-0.54964 5.29921,-0.99935 8.56341,-0.99935 3.60343,0 5.9349,-0.42665 5.9349,-1.08606 0,-0.73826 -3.71115,-0.97843 -11.58877,-0.75 -11.39291,0.33038 -11.63125,0.38549 -14.10246,3.26094 -1.98857,2.31386 -2.39795,3.63815 -1.95962,6.33923 0.76919,4.74 1.94128,5.8568 10.84508,10.33354 7.07393,3.5567 7.80577,4.19957 7.80577,6.8568 0,4.36933 -3.11159,6.04555 -11.22251,6.04555 -3.85166,0 -6.77749,0.43169 -6.77749,1 0,1.64863 20.59948,1.25847 23.90881,-0.45285 z m 73.01967,-0.0102 c 3.22633,-1.6684 4.07152,-3.32574 4.07152,-7.98391 0,-4.49748 -2.94214,-7.85709 -9.21329,-10.52059 -5.75616,-2.44477 -9.78671,-5.61873 -9.78671,-7.7068 0,-0.72913 0.9,-2.22568 2,-3.32568 1.61905,-1.61905 3.33333,-2 9,-2 4,0 7,-0.42858 7,-1 0,-1.42992 -20.59519,-1.28564 -23.31574,0.16334 -3.19952,1.70407 -4.61656,3.94704 -4.65246,7.36415 -0.0463,4.41243 2.3294,7.12484 9.29032,10.60681 7.72793,3.86564 9.67788,5.571 9.67788,8.46398 0,3.67469 -3.58803,5.40172 -11.22251,5.40172 -3.85166,0 -6.77749,0.43169 -6.77749,1 0,1.65618 20.60128,1.25754 23.92848,-0.46302 z m 41.30574,-1.45334 c 3.21647,-2.87233 3.27091,-3.06674 3.60561,-12.87595 0.55715,-16.32863 -2.19937,-19.20769 -18.39017,-19.20769 -9.64079,0 -9.65279,0.003 -13.04966,3.4 l -3.4,3.4 v 10.16574 c 0,16.21161 1.69186,17.97982 17.23422,18.01202 10.45932,0.0217 10.81786,-0.0524 14,-2.89413 z m -18.79309,-0.5011 c -1.68912,-1.23343 -1.98463,-2.91603 -2.27621,-12.96037 -0.32616,-11.23571 -0.26749,-11.61051 2.20455,-14.08255 3.0238,-3.0238 6.53251,-3.24933 9.76975,-0.62797 2.23301,1.80818 2.36078,2.53317 2.36078,13.39501 0,9.88913 -0.26447,11.7756 -1.90499,13.58835 -2.22527,2.4589 -7.26112,2.79989 -10.15388,0.68753 z"
         id="path846"
         inkscape:connector-curvature="0"
         sodipodi:nodetypes="cscccccccccccssscscscssssscssssscssssssscsssscccssccssccsscsscs" />
    </g>
  </g>
</svg>
